<svg width="1738" height="984" viewBox="0 0 1738 984" fill="none" xmlns="http://www.w3.org/2000/svg">
<rect width="1738" height="984" fill="#525252"/>
<rect width="247" height="900" transform="translate(82 40)" fill="white"/>
<text fill="#111827" style="white-space: pre" xml:space="preserve" font-family="Pretendard" font-size="21" font-weight="bold" letter-spacing="0em"><tspan x="110" y="88.9648">&#xbcf4;&#xd5d8; &#xad00;&#xb9ac;</tspan></text>
<path d="M302 126H112C105.373 126 100 131.373 100 138V172C100 178.627 105.373 184 112 184H302C308.627 184 314 178.627 314 172V138C314 131.373 308.627 126 302 126Z" fill="#EEF2FF"/>
<text fill="#3730A3" style="white-space: pre" xml:space="preserve" font-family="Pretendard" font-size="15" font-weight="bold" letter-spacing="0em"><tspan x="148" y="160.332">&#xbcf4;&#xd5d8; &#xc77c;&#xc815;</tspan></text>
<text fill="#374151" style="white-space: pre" xml:space="preserve" font-family="Pretendard" font-size="15" letter-spacing="0em"><tspan x="130" y="219.332">&#xb0b4; &#xbcf4;&#xd5d8;</tspan></text>
<text fill="#374151" style="white-space: pre" xml:space="preserve" font-family="Pretendard" font-size="15" letter-spacing="0em"><tspan x="130" y="278.332">&#xbcf4;&#xd5d8;&#xb8cc; &#xbd84;&#xc11d;</tspan></text>
<text fill="#374151" style="white-space: pre" xml:space="preserve" font-family="Pretendard" font-size="15" letter-spacing="0em"><tspan x="130" y="337.332">&#xc54c;&#xb9bc;</tspan></text>
<text fill="#374151" style="white-space: pre" xml:space="preserve" font-family="Pretendard" font-size="15" letter-spacing="0em"><tspan x="130" y="396.332">&#xc124;&#xc815;</tspan></text>
<path d="M302 510H112C105.373 510 100 515.373 100 522V668C100 674.627 105.373 680 112 680H302C308.627 680 314 674.627 314 668V522C314 515.373 308.627 510 302 510Z" fill="white" stroke="#E5E7EB"/>
<text fill="#111827" style="white-space: pre" xml:space="preserve" font-family="Pretendard" font-size="15" font-weight="bold" letter-spacing="0em"><tspan x="118" y="541.332">&#xb0b4; &#xbcf4;&#xd5d8; &#xc694;&#xc57d;</tspan></text>
<text fill="#4B5563" style="white-space: pre" xml:space="preserve" font-family="Pretendard" font-size="13" letter-spacing="0em"><tspan x="118" y="576.621">&#xac00;&#xc785; &#xbcf4;&#xd5d8;</tspan></text>
<text fill="#111827" style="white-space: pre" xml:space="preserve" font-family="Pretendard" font-size="15" font-weight="bold" letter-spacing="0em"><tspan x="256.408" y="576.332">7&#xac1c;</tspan></text>
<text fill="#4B5563" style="white-space: pre" xml:space="preserve" font-family="Pretendard" font-size="13" letter-spacing="0em"><tspan x="118" y="608.621">&#xc774;&#xbc88; &#xb2ec; &#xb0a9;&#xc785;</tspan></text>
<text fill="#111827" style="white-space: pre" xml:space="preserve" font-family="Pretendard" font-size="15" font-weight="bold" letter-spacing="0em"><tspan x="255.456" y="608.332">3&#xac74;</tspan></text>
<text fill="#4B5563" style="white-space: pre" xml:space="preserve" font-family="Pretendard" font-size="13" letter-spacing="0em"><tspan x="118" y="640.621">&#xac31;&#xc2e0; &#xc608;&#xc815;</tspan></text>
<text fill="#111827" style="white-space: pre" xml:space="preserve" font-family="Pretendard" font-size="15" font-weight="bold" letter-spacing="0em"><tspan x="255.881" y="640.332">2&#xac74;</tspan></text>
<text fill="#4B5563" style="white-space: pre" xml:space="preserve" font-family="Pretendard" font-size="13" letter-spacing="0em"><tspan x="118" y="672.621">&#xb9cc;&#xae30; &#xc608;&#xc815;</tspan></text>
<text fill="#111827" style="white-space: pre" xml:space="preserve" font-family="Pretendard" font-size="15" font-weight="bold" letter-spacing="0em"><tspan x="258.005" y="672.332">1&#xac74;</tspan></text>
<path d="M1640 175H1292C1283.16 175 1276 182.163 1276 191V919C1276 927.837 1283.16 935 1292 935H1640C1648.84 935 1656 927.837 1656 919V191C1656 182.163 1648.84 175 1640 175Z" fill="white" stroke="#E5E7EB"/>
<text fill="#111827" style="white-space: pre" xml:space="preserve" font-family="Pretendard" font-size="18" font-weight="bold" letter-spacing="0em"><tspan x="1300" y="215.898">8&#xc6d4; 12&#xc77c; (&#xc218;)</tspan></text>
<text fill="#6B7280" style="white-space: pre" xml:space="preserve" font-family="Pretendard" font-size="20" letter-spacing="0em"><tspan x="1620" y="216.109">&#xd7;</tspan></text>
<text fill="#111827" style="white-space: pre" xml:space="preserve" font-family="Pretendard" font-size="15" font-weight="bold" letter-spacing="0em"><tspan x="1300" y="258.332">&#xc624;&#xb298;&#xc758; &#xc77c;&#xc815; </tspan></text>
<text fill="#6B7280" style="white-space: pre" xml:space="preserve" font-family="Pretendard" font-size="15" font-weight="bold" letter-spacing="0em"><tspan x="1371.73" y="258.332">2&#xac74;</tspan></text>
<path d="M1624 237H1536C1531.58 237 1528 240.582 1528 245V263C1528 267.418 1531.58 271 1536 271H1624C1628.42 271 1632 267.418 1632 263V245C1632 240.582 1628.42 237 1624 237Z" fill="white" stroke="#D1D5DB"/>
<text fill="#374151" style="white-space: pre" xml:space="preserve" font-family="Pretendard" font-size="12" letter-spacing="0em"><tspan x="1552.48" y="258.266">+ &#xbcf4;&#xd5d8; &#xb4f1;&#xb85d;</tspan></text>
<path d="M1624 295H1308C1301.37 295 1296 300.373 1296 307V433C1296 439.627 1301.37 445 1308 445H1624C1630.63 445 1636 439.627 1636 433V307C1636 300.373 1630.63 295 1624 295Z" fill="#F8FAFF" stroke="#DDE5FF"/>
<text fill="#2563EB" style="white-space: pre" xml:space="preserve" font-family="Pretendard" font-size="12" font-weight="bold" letter-spacing="0em"><tspan x="1314" y="324.266">&#xb0a9;&#xc785;</tspan></text>
<text fill="#111827" style="white-space: pre" xml:space="preserve" font-family="Pretendard" font-size="16" font-weight="bold" letter-spacing="0em"><tspan x="1314" y="362.188">&#xc0bc;&#xc131;&#xd654;&#xc7ac; &#xac74;&#xac15;&#xbcf4;&#xd5d8;</tspan></text>
<text fill="#4B5563" style="white-space: pre" xml:space="preserve" font-family="Pretendard" font-size="13" letter-spacing="0em"><tspan x="1314" y="390.621">85,000&#xc6d0; &#xb7; &#xc6d4; &#xbcf4;&#xd5d8;&#xb8cc; &#xb0a9;&#xc785;&#xc77c;</tspan></text>
<path d="M1610 403H1542C1537.58 403 1534 406.582 1534 411V423C1534 427.418 1537.58 431 1542 431H1610C1614.42 431 1618 427.418 1618 423V411C1618 406.582 1614.42 403 1610 403Z" fill="#DCFCE7"/>
<text fill="#166534" style="white-space: pre" xml:space="preserve" font-family="Pretendard" font-size="11" font-weight="bold" letter-spacing="0em"><tspan x="1555.72" y="420.41">&#xb0a9;&#xc785; &#xc644;&#xb8cc;</tspan></text>
<path d="M1624 463H1308C1301.37 463 1296 468.373 1296 475V601C1296 607.627 1301.37 613 1308 613H1624C1630.63 613 1636 607.627 1636 601V475C1636 468.373 1630.63 463 1624 463Z" fill="#FFFAF5" stroke="#FDE3C2"/>
<text fill="#D97706" style="white-space: pre" xml:space="preserve" font-family="Pretendard" font-size="12" font-weight="bold" letter-spacing="0em"><tspan x="1314" y="492.266">&#xac31;&#xc2e0;</tspan></text>
<text fill="#111827" style="white-space: pre" xml:space="preserve" font-family="Pretendard" font-size="16" font-weight="bold" letter-spacing="0em"><tspan x="1314" y="530.188">KB&#xc190;&#xd574;&#xbcf4;&#xd5d8; &#xc6b4;&#xc804;&#xc790;&#xbcf4;&#xd5d8;</tspan></text>
<text fill="#4B5563" style="white-space: pre" xml:space="preserve" font-family="Pretendard" font-size="13" letter-spacing="0em"><tspan x="1314" y="558.621">&#xac31;&#xc2e0; &#xc608;&#xc815; &#xb7; 8&#xc6d4; 20&#xc77c;</tspan></text>
<path d="M1610 571H1550C1545.58 571 1542 574.582 1542 579V591C1542 595.418 1545.58 599 1550 599H1610C1614.42 599 1618 595.418 1618 591V579C1618 574.582 1614.42 571 1610 571Z" fill="white" stroke="#D1D5DB"/>
<text fill="#374151" style="white-space: pre" xml:space="preserve" font-family="Pretendard" font-size="11" letter-spacing="0em"><tspan x="1553.2" y="588.41">&#xc0c1;&#xc138; &#xbcf4;&#xae30; &#x2192;</tspan></text>
<path d="M1626 641H1306C1300.48 641 1296 645.477 1296 651V683C1296 688.523 1300.48 693 1306 693H1626C1631.52 693 1636 688.523 1636 683V651C1636 645.477 1631.52 641 1626 641Z" fill="white" stroke="#E5E7EB"/>
<text fill="#374151" style="white-space: pre" xml:space="preserve" font-family="Pretendard" font-size="13" letter-spacing="0em"><tspan x="1395.73" y="671.621">&#xd574;&#xb2f9; &#xb0a0;&#xc9dc; &#xc77c;&#xc815; &#xc804;&#xccb4; &#xbcf4;&#xae30; &#x2192;</tspan></text>
<path d="M1626 713H1306C1300.48 713 1296 717.477 1296 723V755C1296 760.523 1300.48 765 1306 765H1626C1631.52 765 1636 760.523 1636 755V723C1636 717.477 1631.52 713 1626 713Z" fill="white" stroke="#E5E7EB"/>
<text fill="#374151" style="white-space: pre" xml:space="preserve" font-family="Pretendard" font-size="13" letter-spacing="0em"><tspan x="1414.22" y="743.621">&#xb0b4; &#xbcf4;&#xd5d8; &#xc804;&#xccb4; &#xbcf4;&#xae30; &#x2192;</tspan></text>
<path d="M1182 328H390C382.268 328 376 334.268 376 342V934C376 941.732 382.268 948 390 948H1182C1189.73 948 1196 941.732 1196 934V342C1196 334.268 1189.73 328 1182 328Z" fill="white" stroke="#E5E7EB"/>
<text fill="#111827" style="white-space: pre" xml:space="preserve" font-family="Pretendard" font-size="20" font-weight="bold" letter-spacing="0em"><tspan x="734.74" y="369.109">2026&#xb144; 8&#xc6d4;</tspan></text>
<text fill="#374151" style="white-space: pre" xml:space="preserve" font-family="Pretendard" font-size="14" letter-spacing="0em"><tspan x="410" y="369.477">&#x2039;</tspan></text>
<text fill="#374151" style="white-space: pre" xml:space="preserve" font-family="Pretendard" font-size="14" letter-spacing="0em"><tspan x="1160" y="369.477">&#x203a;</tspan></text>
<path d="M376 392H1196" stroke="#E5E7EB"/>
<text fill="#6B7280" style="white-space: pre" xml:space="preserve" font-family="Pretendard" font-size="13" letter-spacing="0em"><tspan x="434" y="415.621">&#xc6d4;</tspan></text>
<text fill="#6B7280" style="white-space: pre" xml:space="preserve" font-family="Pretendard" font-size="13" letter-spacing="0em"><tspan x="551" y="415.621">&#xd654;</tspan></text>
<text fill="#6B7280" style="white-space: pre" xml:space="preserve" font-family="Pretendard" font-size="13" letter-spacing="0em"><tspan x="668" y="415.621">&#xc218;</tspan></text>
<text fill="#6B7280" style="white-space: pre" xml:space="preserve" font-family="Pretendard" font-size="13" letter-spacing="0em"><tspan x="785" y="415.621">&#xbaa9;</tspan></text>
<text fill="#6B7280" style="white-space: pre" xml:space="preserve" font-family="Pretendard" font-size="13" letter-spacing="0em"><tspan x="902" y="415.621">&#xae08;</tspan></text>
<text fill="#6B7280" style="white-space: pre" xml:space="preserve" font-family="Pretendard" font-size="13" letter-spacing="0em"><tspan x="1019" y="415.621">&#xd1a0;</tspan></text>
<text fill="#6B7280" style="white-space: pre" xml:space="preserve" font-family="Pretendard" font-size="13" letter-spacing="0em"><tspan x="1136" y="415.621">&#xc77c;</tspan></text>
<path d="M376 432H1196H376ZM376 512H1196H376ZM376 592H1196H376ZM376 672H1196H376ZM376 752H1196H376ZM376 832H1196H376ZM493 392V912V392ZM610 392V912V392ZM727 392V912V392ZM844 392V912V392ZM961 392V912V392ZM1078 392V912V392Z" fill="black"/>
<path d="M376 432H1196M376 512H1196M376 592H1196M376 672H1196M376 752H1196M376 832H1196M493 392V912M610 392V912M727 392V912M844 392V912M961 392V912M1078 392V912" stroke="#F3F4F6"/>
<text fill="#374151" style="white-space: pre" xml:space="preserve" font-family="Pretendard" font-size="12" letter-spacing="0em"><tspan x="1027" y="457.266">1</tspan></text>
<text fill="#374151" style="white-space: pre" xml:space="preserve" font-family="Pretendard" font-size="12" letter-spacing="0em"><tspan x="1144" y="457.266">2</tspan></text>
<text fill="#374151" style="white-space: pre" xml:space="preserve" font-family="Pretendard" font-size="12" letter-spacing="0em"><tspan x="442" y="537.266">3</tspan></text>
<text fill="#374151" style="white-space: pre" xml:space="preserve" font-family="Pretendard" font-size="12" letter-spacing="0em"><tspan x="559" y="537.266">4</tspan></text>
<text fill="#374151" style="white-space: pre" xml:space="preserve" font-family="Pretendard" font-size="12" letter-spacing="0em"><tspan x="676" y="537.266">5</tspan></text>
<text fill="#374151" style="white-space: pre" xml:space="preserve" font-family="Pretendard" font-size="12" letter-spacing="0em"><tspan x="793" y="537.266">6</tspan></text>
<text fill="#374151" style="white-space: pre" xml:space="preserve" font-family="Pretendard" font-size="12" letter-spacing="0em"><tspan x="910" y="537.266">7</tspan></text>
<text fill="#374151" style="white-space: pre" xml:space="preserve" font-family="Pretendard" font-size="12" letter-spacing="0em"><tspan x="1027" y="537.266">8</tspan></text>
<text fill="#374151" style="white-space: pre" xml:space="preserve" font-family="Pretendard" font-size="12" letter-spacing="0em"><tspan x="1144" y="537.266">9</tspan></text>
<text fill="#374151" style="white-space: pre" xml:space="preserve" font-family="Pretendard" font-size="12" letter-spacing="0em"><tspan x="442" y="617.266">10</tspan></text>
<text fill="#374151" style="white-space: pre" xml:space="preserve" font-family="Pretendard" font-size="12" letter-spacing="0em"><tspan x="559" y="617.266">11</tspan></text>
<text fill="#3730A3" style="white-space: pre" xml:space="preserve" font-family="Pretendard" font-size="12" font-weight="bold" letter-spacing="0em"><tspan x="676" y="617.266">12</tspan></text>
<text fill="#374151" style="white-space: pre" xml:space="preserve" font-family="Pretendard" font-size="12" letter-spacing="0em"><tspan x="793" y="617.266">13</tspan></text>
<text fill="#374151" style="white-space: pre" xml:space="preserve" font-family="Pretendard" font-size="12" letter-spacing="0em"><tspan x="910" y="617.266">14</tspan></text>
<text fill="#374151" style="white-space: pre" xml:space="preserve" font-family="Pretendard" font-size="12" letter-spacing="0em"><tspan x="1027" y="617.266">15</tspan></text>
<text fill="#374151" style="white-space: pre" xml:space="preserve" font-family="Pretendard" font-size="12" letter-spacing="0em"><tspan x="1144" y="617.266">16</tspan></text>
<text fill="#374151" style="white-space: pre" xml:space="preserve" font-family="Pretendard" font-size="12" letter-spacing="0em"><tspan x="442" y="697.266">17</tspan></text>
<text fill="#374151" style="white-space: pre" xml:space="preserve" font-family="Pretendard" font-size="12" letter-spacing="0em"><tspan x="559" y="697.266">18</tspan></text>
<text fill="#374151" style="white-space: pre" xml:space="preserve" font-family="Pretendard" font-size="12" letter-spacing="0em"><tspan x="676" y="697.266">19</tspan></text>
<text fill="#374151" style="white-space: pre" xml:space="preserve" font-family="Pretendard" font-size="12" letter-spacing="0em"><tspan x="793" y="697.266">20</tspan></text>
<text fill="#374151" style="white-space: pre" xml:space="preserve" font-family="Pretendard" font-size="12" letter-spacing="0em"><tspan x="910" y="697.266">21</tspan></text>
<text fill="#374151" style="white-space: pre" xml:space="preserve" font-family="Pretendard" font-size="12" letter-spacing="0em"><tspan x="1027" y="697.266">22</tspan></text>
<text fill="#374151" style="white-space: pre" xml:space="preserve" font-family="Pretendard" font-size="12" letter-spacing="0em"><tspan x="1144" y="697.266">23</tspan></text>
<text fill="#374151" style="white-space: pre" xml:space="preserve" font-family="Pretendard" font-size="12" letter-spacing="0em"><tspan x="442" y="777.266">24</tspan></text>
<text fill="#374151" style="white-space: pre" xml:space="preserve" font-family="Pretendard" font-size="12" letter-spacing="0em"><tspan x="559" y="777.266">25</tspan></text>
<text fill="#374151" style="white-space: pre" xml:space="preserve" font-family="Pretendard" font-size="12" letter-spacing="0em"><tspan x="676" y="777.266">26</tspan></text>
<text fill="#374151" style="white-space: pre" xml:space="preserve" font-family="Pretendard" font-size="12" letter-spacing="0em"><tspan x="793" y="777.266">27</tspan></text>
<text fill="#374151" style="white-space: pre" xml:space="preserve" font-family="Pretendard" font-size="12" letter-spacing="0em"><tspan x="910" y="777.266">28</tspan></text>
<text fill="#374151" style="white-space: pre" xml:space="preserve" font-family="Pretendard" font-size="12" letter-spacing="0em"><tspan x="1027" y="777.266">29</tspan></text>
<text fill="#374151" style="white-space: pre" xml:space="preserve" font-family="Pretendard" font-size="12" letter-spacing="0em"><tspan x="1144" y="777.266">30</tspan></text>
<text fill="#374151" style="white-space: pre" xml:space="preserve" font-family="Pretendard" font-size="12" letter-spacing="0em"><tspan x="442" y="857.266">31</tspan></text>
<path d="M659 643C661.209 643 663 641.209 663 639C663 636.791 661.209 635 659 635C656.791 635 655 636.791 655 639C655 641.209 656.791 643 659 643Z" fill="#3B82F6"/>
<path d="M677 643C679.209 643 681 641.209 681 639C681 636.791 679.209 635 677 635C674.791 635 673 636.791 673 639C673 641.209 674.791 643 677 643Z" fill="#F59E0B"/>
<path d="M1144 483C1146.21 483 1148 481.209 1148 479C1148 476.791 1146.21 475 1144 475C1141.79 475 1140 476.791 1140 479C1140 481.209 1141.79 483 1144 483Z" fill="#EF4444"/>
<path d="M1027 563C1029.21 563 1031 561.209 1031 559C1031 556.791 1029.21 555 1027 555C1024.79 555 1023 556.791 1023 559C1023 561.209 1024.79 563 1027 563Z" fill="#3B82F6"/>
<path d="M793 723C795.209 723 797 721.209 797 719C797 716.791 795.209 715 793 715C790.791 715 789 716.791 789 719C789 721.209 790.791 723 793 723Z" fill="#F59E0B"/>
<path d="M910 803C912.209 803 914 801.209 914 799C914 796.791 912.209 795 910 795C907.791 795 906 796.791 906 799C906 801.209 907.791 803 910 803Z" fill="#EF4444"/>
<text fill="#6B7280" style="white-space: pre" xml:space="preserve" font-family="Pretendard" font-size="12" letter-spacing="0em"><tspan x="682.541" y="937.266">&#x1f535; &#xb0a9;&#xc785;&#xc77c; &#x1f7e2; &#xac31;&#xc2e0;&#xc77c; &#x1f534; &#xb9cc;&#xae30;&#xc77c; &#x1f7e0; &#xae30;&#xd0c0; &#xc77c;&#xc815;</tspan></text>
<path d="M559 178H393C386.373 178 381 183.373 381 190V258C381 264.627 386.373 270 393 270H559C565.627 270 571 264.627 571 258V190C571 183.373 565.627 178 559 178Z" fill="white" stroke="#E5E7EB"/>
<text fill="#6B7280" style="white-space: pre" xml:space="preserve" font-family="Pretendard" font-size="12" letter-spacing="0em"><tspan x="399" y="205.266">&#xac00;&#xc785; &#xbcf4;&#xd5d8;</tspan></text>
<text fill="#111827" style="white-space: pre" xml:space="preserve" font-family="Pretendard" font-size="25" font-weight="bold" letter-spacing="0em"><tspan x="399" y="234.887">7&#xac1c;</tspan></text>
<path d="M763 178H597C590.373 178 585 183.373 585 190V258C585 264.627 590.373 270 597 270H763C769.627 270 775 264.627 775 258V190C775 183.373 769.627 178 763 178Z" fill="white" stroke="#E5E7EB"/>
<text fill="#6B7280" style="white-space: pre" xml:space="preserve" font-family="Pretendard" font-size="12" letter-spacing="0em"><tspan x="603" y="205.266">&#xc774;&#xbc88; &#xb2ec; &#xb0a9;&#xc785;</tspan></text>
<text fill="#111827" style="white-space: pre" xml:space="preserve" font-family="Pretendard" font-size="25" font-weight="bold" letter-spacing="0em"><tspan x="603" y="234.887">3&#xac74;</tspan></text>
<path d="M967 178H801C794.373 178 789 183.373 789 190V258C789 264.627 794.373 270 801 270H967C973.627 270 979 264.627 979 258V190C979 183.373 973.627 178 967 178Z" fill="white" stroke="#E5E7EB"/>
<text fill="#6B7280" style="white-space: pre" xml:space="preserve" font-family="Pretendard" font-size="12" letter-spacing="0em"><tspan x="807" y="205.266">&#xac31;&#xc2e0; &#xc608;&#xc815;</tspan></text>
<text fill="#111827" style="white-space: pre" xml:space="preserve" font-family="Pretendard" font-size="25" font-weight="bold" letter-spacing="0em"><tspan x="807" y="234.887">2&#xac74;</tspan></text>
<path d="M1171 178H1005C998.373 178 993 183.373 993 190V258C993 264.627 998.373 270 1005 270H1171C1177.63 270 1183 264.627 1183 258V190C1183 183.373 1177.63 178 1171 178Z" fill="white" stroke="#E5E7EB"/>
<text fill="#6B7280" style="white-space: pre" xml:space="preserve" font-family="Pretendard" font-size="12" letter-spacing="0em"><tspan x="1011" y="205.266">&#xb9cc;&#xae30; &#xc608;&#xc815;</tspan></text>
<text fill="#111827" style="white-space: pre" xml:space="preserve" font-family="Pretendard" font-size="25" font-weight="bold" letter-spacing="0em"><tspan x="1011" y="234.887">1&#xac74;</tspan></text>
<path d="M1656 37H376V109H1656V37Z" fill="white"/>
<path d="M376 108.5H1656" stroke="#E5E7EB"/>
<text fill="#111827" style="white-space: pre" xml:space="preserve" font-family="Pretendard" font-size="19" font-weight="bold" letter-spacing="0em"><tspan x="410" y="80.2539">&#xbcf4;&#xd5d8; &#xc77c;&#xc815;</tspan></text>
<text fill="#6B7280" style="white-space: pre" xml:space="preserve" font-family="Pretendard" font-size="14" letter-spacing="0em"><tspan x="1406" y="80.02">&#x1f514;</tspan></text>
<path d="M1530 89C1539.94 89 1548 80.9411 1548 71C1548 61.0589 1539.94 53 1530 53C1520.06 53 1512 61.0589 1512 71C1512 80.9411 1520.06 89 1530 89Z" fill="#EEF2FF"/>
<text fill="#374151" style="white-space: pre" xml:space="preserve" font-family="Pretendard" font-size="14" letter-spacing="0em"><tspan x="1554" y="75.4766">&#xbc15;&#xc778;&#xd0dc;&#xb2d8;&#x2304;</tspan></text>
</svg>
